<svg width="800" height="600" xmlns="http://www.w3.org/2000/svg">
 <g>
  <title>SVG graphics</title>
  <g id="slide2-1" style="opacity: 0;">
   <text fill="#000000" stroke="#000000" stroke-width="1" x="318" y="125" font-size="29" font-family="serif" text-anchor="middle" xml:space="preserve">You can also animate SVG graphics</text>
   <path fill="#000000" stroke="#000000" stroke-width="1" d="m61.07001,127.24605l6.27839,-6.30029l-12.13909,0l-12.13934,0l0,-3.90042l0,-3.89941l12.00011,0c6.5999,0 11.99986,-0.19788 11.99986,-0.43959c0,-0.2417 -2.62722,-3.07663 -5.8388,-6.29979l-5.8388,-5.86069l5.39694,0l5.39669,0l8.2422,8.25755l8.24194,8.25856l-8.2578,8.24194l-8.25806,8.24194l-5.68119,0l-5.68144,0l6.27839,-6.29979l0,0z"/>
  </g>

  <g id="slide2-2" style="opacity: 0;">
   <text fill="#000000" stroke="#000000" stroke-width="1" x="386" y="221.75" font-size="29" font-family="serif" text-anchor="middle" xml:space="preserve">SVG transforms are also possible</text>
   <path fill="#000000" stroke="#000000" stroke-width="1" d="m140.19995,219.7002l6.27838,-6.30026l-12.13907,0l-12.13934,0l0,-3.90044l0,-3.89938l12.00009,0c6.59991,0 11.99988,-0.19791 11.99988,-0.43961c0,-0.24171 -2.6272,-3.07663 -5.83881,-6.29977l-5.83882,-5.86072l5.39694,0l5.3967,0l8.2422,8.25757l8.24193,8.25853l-8.2578,8.24194l-8.25807,8.24193l-5.68114,0l-5.68147,0l6.27838,-6.29979l0,0l0.00002,0z"/>
  </g>

  <g transform="translate(500, 400)">
    <path id="slide2-3" style="opacity:0;" stroke-width="3" stroke="#000000" file="#000000" d="m-30.51129,30.09766c6.50198,-4.28143 -8.2626,-7.8996 -10.45499,-11.94492c-6.4502,-7.93457 -8.46457,-18.48145 -10.25879,-28.28125c3.08978,-5.26511 1.84082,-10.70175 2.95755,-16.17444c5.47107,-8.12347 8.5033,-17.65231 14.00391,-25.75427c6.12305,1.29532 12.74557,6.26602 18.88556,8.15326c5.53482,9.96094 -4.59805,18.25156 -3.40704,27.89554c2.32462,8.98773 -3.89505,16.47903 -5.14993,24.85687c0.04623,7.92334 7.25098,15.94345 15.12833,10.50058c-0.39832,-5.78268 -11.63483,-7.57169 -6.60645,-15.70224c1.65735,-8.40033 7.07727,-15.13272 11.18027,-22.19327c-2.31357,-8.27405 0.77148,-18.76953 5.98978,-24.97214c5.29929,5.12091 8.96527,14.12598 9.77539,21.29538c0.10397,8.22266 11.04724,13.72302 10.84128,23.4072c0.81696,8.55725 4.82764,16.70999 10.38574,21.35355c2.90527,6.04092 20.94473,2.88242 11.33536,-4.29343c-7.93457,-7.15677 -17.06055,-14.74719 -18.26254,-26.16321c-3.29254,-6.77249 4.27435,-16.36328 -5.01871,-19.19437c0.57614,-9.17816 -1.85782,-19.59848 3.37808,-27.78064c7.53119,-6.43814 18.56192,-6.92154 25.77231,-14.03912c8.74023,-5.79486 13.70038,-15.29459 16.49667,-25.13348c4.24063,-4.74683 10.81699,-15.00562 18.142,-9.67288c7.1803,4.44208 1.88092,-6.73212 6.00073,-9.19434c-3.40057,-12.28516 -17.21558,-6.38672 -25.83472,-9.44769c-7.82608,-5.24197 -15.93262,-2.22095 -21.63464,3.76953c-4.28079,1.92746 -1.96887,6.96722 2.23187,5.06781c-3.00934,9.99512 -7.1572,20.99127 -16.27676,26.9119c-10.46152,4.58008 -16.30136,-8.98218 -22.51041,-14.86816c-6.77823,-6.64063 -10.98337,-16.32413 -19.5238,-20.87546c-11.88104,-3.00909 -20.90332,7.42242 -29.87912,13.29102c-8.90704,4.45944 -19.59793,6.66376 -25.66849,15.35788c-10.08084,12.1181 -3.68835,30.3978 -14.29324,42.31445c-4.36182,6.60013 -13.97607,11.36319 -12.65283,20.44434c4.67773,9.724 0.57474,21.3295 3.13565,31.78946c1.88788,7.56113 4.6839,17.27948 13.84406,18.40253c7.20486,4.56287 11.12305,-5.00156 3.49249,-7.77344c-9.20609,-4.09247 -10.46585,-15.60562 -11.2019,-24.4498c-2.0318,-8.75745 4.90796,-14.5459 7.7673,-21.42194c-2.41699,-6.70938 6.1167,-15.82904 11.52542,-14.47025c-4.04553,6.21301 -9.94827,14.26852 -0.37943,19.38477c-0.12695,0.31601 1.40887,-5.73148 3.87207,-7.54883c-0.36887,-4.73633 -5.17361,-8.76953 -0.07468,-13.56842c8.94092,-5.96075 6.96826,11.3356 5.1152,16.24283c-0.104,7.53314 -10.19678,13.517 -5.04053,21.06534c5.65088,9.30429 8.29736,19.99579 10.46045,30.54834c3.11234,8.74512 10.9668,15.14413 20.78955,12.88339l1.62198,-0.01797l0,0z" />
  </g>
 </g>
</svg>